<?xml version="1.0" encoding="UTF-8"?>
<svg xmlns="http://www.w3.org/2000/svg" 
     viewBox="-20 -20 555 398" 
     width="555" height="398" 
     style="background-color: #1a1a1a; font-family: sans-serif;">
<defs>
                    <style>
                        .cord { fill: none; stroke-linecap: round; stroke-width: 3px; }
                        .comp { stroke: none; }
                        .text { fill: #cccccc; font-size: 12px; }
                    </style>
                </defs><g transform="translate(0, 0)"><rect width="515" height="358" 
                            fill="#014e8c" stroke="#0288d1" stroke-width="2"/><g class="cords-layer"><path d="M 123 155 C 153 155, 137 138.66666666666666, 167 138.66666666666666" 
                                stroke="#4caf50" class="cord" fill="none" /><path d="M 130 228 C 160 228, 137 189.33333333333331, 167 189.33333333333331" 
                                stroke="#4caf50" class="cord" fill="none" /><path d="M 381 164 C 411 164, 391 184, 421 184" 
                                stroke="#ff9800" class="cord" fill="none" /></g><g transform="translate(72, 125)"><polygon points="15,10 15,90 85,50" fill="#4caf50" stroke="none" transform="scale(0.6,0.6)"/></g><g transform="translate(79, 198)"><polygon points="15,10 15,90 85,50" fill="#4caf50" stroke="none" transform="scale(0.6,0.6)"/></g><g transform="translate(187, 88)"><rect width="176" height="152" 
                            fill="#014e8c" stroke="#0288d1" stroke-width="2"/><g class="cords-layer"><path d="M 18 50.666666666666664 C 48 50.666666666666664, 43 75, 73 75" 
                                stroke="#ff9800" class="cord" fill="none" /><path d="M 18 101.33333333333333 C 48 101.33333333333333, 43 87, 73 87" 
                                stroke="#ff9800" class="cord" fill="none" /><path d="M 115 81 C 145 81, 128 76, 158 76" 
                                stroke="#4caf50" class="cord" fill="none" /></g><g transform="translate(64, 51)"><polygon points="15,10 15,90 85,50" fill="#4caf50" stroke="none" transform="scale(0.6,0.6)"/></g><g transform="translate(-20, 30.666666666666664)"><polygon points="50,5 95,50 50,95 5,50" fill="#ff9800" stroke="none" transform="scale(0.4,0.4)"/></g><g transform="translate(-20, 81.33333333333333)"><polygon points="50,5 95,50 50,95 5,50" fill="#ff9800" stroke="none" transform="scale(0.4,0.4)"/></g><g transform="translate(156, 56)"><polygon points="50,5 95,50 50,95 5,50" fill="#ff9800" stroke="none" transform="scale(0.4,0.4)"/></g></g><g transform="translate(412, 154)"><polygon points="15,10 15,90 85,50" fill="#4caf50" stroke="none" transform="scale(0.6,0.6)"/></g></g></svg>